# xmcd
#
# Track frame offsets: 
#        150
#        12289
#        23335
#        34115
#        45819
#        56250
#        68767
#        81462
#        93435
#        108097
#        121756
#        130765
#        145599
#        159319
#        173617
#        186594
#        198606
#        209492
#        228095
#
# Disc length: 3185 seconds
#
# Revision: 0
# Processed by: cddbd v1.5.2PL0 Copyright (c) Steve Scherf et al.
# Submitted via: ExactAudioCopy v1.1
#
DISCID=e90c6f13
DTITLE=Bobby Blue Bland - absolutely essential collection CD1
DYEAR=1900
DGENRE=Soul
TTITLE0=I pity the fool
TTITLE1=don't cry no more
TTITLE2=I'll take care of you
TTITLE3=you did me wrong
TTITLE4=Bobby's blues
TTITLE5=I learned my lesson
TTITLE6=time out
TTITLE7=amy blues
TTITLE8=love you till the day I die
TTITLE9=drifting from town to town
TTITLE10=dry up baby
TTITLE11=lovin' blues
TTITLE12=crying all night long
TTITLE13=I.O.U. blues
TTITLE14=you or none
TTITLE15=don't want no woman
TTITLE16=loan a helping hand
TTITLE17=stormy monday blues
TTITLE18=St. James infirmary
EXTD=
EXTT0=
EXTT1=
EXTT2=
EXTT3=
EXTT4=
EXTT5=
EXTT6=
EXTT7=
EXTT8=
EXTT9=
EXTT10=
EXTT11=
EXTT12=
EXTT13=
EXTT14=
EXTT15=
EXTT16=
EXTT17=
EXTT18=
PLAYORDER=
